<svg width="32" height="32" viewBox="0 0 32 32" fill="none" xmlns="http://www.w3.org/2000/svg">
<path d="M15.9993 29.3329C23.3631 29.3329 29.3327 23.3634 29.3327 15.9996C29.3327 8.6358 23.3631 2.66626 15.9993 2.66626C8.63555 2.66626 2.66602 8.6358 2.66602 15.9996C2.66602 23.3634 8.63555 29.3329 15.9993 29.3329Z" stroke="#333333" stroke-width="1.5" stroke-miterlimit="10" stroke-linecap="round" stroke-linejoin="round"/>
<path d="M12.3599 8.72607H19.6399C20.117 8.72607 20.5894 8.82006 21.0301 9.00267C21.4709 9.18528 21.8713 9.45293 22.2086 9.79033C22.5459 10.1277 22.8134 10.5283 22.9958 10.9691C23.1783 11.4099 23.2721 11.8823 23.2719 12.3594V19.6394C23.2719 20.1165 23.1779 20.5889 22.9953 21.0296C22.8127 21.4704 22.545 21.8708 22.2076 22.2081C21.8702 22.5454 21.4697 22.8129 21.0289 22.9953C20.5881 23.1778 20.1156 23.2716 19.6386 23.2714H12.3599C11.8827 23.2716 11.4102 23.1777 10.9693 22.9952C10.5284 22.8127 10.1278 22.545 9.79035 22.2076C9.45293 21.8702 9.18531 21.4696 9.00278 21.0287C8.82025 20.5878 8.72639 20.1153 8.72656 19.6381V12.3594C8.72656 11.3958 9.10936 10.4716 9.79074 9.79025C10.4721 9.10887 11.3963 8.72607 12.3599 8.72607V8.72607Z" stroke="#333333" stroke-width="1.5" stroke-miterlimit="10" stroke-linecap="round" stroke-linejoin="round"/>
<path d="M20.0003 11.9329C19.9629 11.9329 19.9336 11.9635 19.9336 11.9995C19.9336 12.0355 19.9629 12.0662 20.0003 12.0662C20.0179 12.0662 20.0349 12.0592 20.0474 12.0467C20.0599 12.0342 20.0669 12.0172 20.0669 11.9995C20.0669 11.9818 20.0599 11.9649 20.0474 11.9524C20.0349 11.9399 20.0179 11.9329 20.0003 11.9329" stroke="#333333" stroke-width="1.5" stroke-miterlimit="10" stroke-linecap="round" stroke-linejoin="round"/>
<path d="M17.8845 14.114C18.1392 14.36 18.3423 14.6543 18.4821 14.9796C18.6218 15.305 18.6954 15.6549 18.6985 16.009C18.7015 16.3631 18.6341 16.7142 18.5 17.0419C18.3659 17.3696 18.1679 17.6674 17.9175 17.9178C17.6671 18.1681 17.3694 18.3662 17.0417 18.5002C16.714 18.6343 16.3628 18.7018 16.0087 18.6987C15.6547 18.6956 15.3047 18.6221 14.9794 18.4823C14.654 18.3426 14.3598 18.1394 14.1138 17.8847C13.628 17.3818 13.3593 16.7082 13.3653 16.009C13.3714 15.3098 13.6519 14.6409 14.1463 14.1465C14.6407 13.6521 15.3095 13.3717 16.0087 13.3656C16.7079 13.3595 17.3815 13.6283 17.8845 14.114" stroke="#333333" stroke-width="1.5" stroke-miterlimit="10" stroke-linecap="round" stroke-linejoin="round"/>
</svg>
