<svg width="32" height="32" viewBox="0 0 32 32" fill="none" xmlns="http://www.w3.org/2000/svg">
<path d="M11.5312 14.0981V20.6435" stroke="#333333" stroke-width="1.5" stroke-linecap="round" stroke-linejoin="round"/>
<path d="M15.8926 20.6435V16.8248C15.8926 16.1017 16.1799 15.4081 16.6912 14.8968C17.2025 14.3854 17.8961 14.0981 18.6192 14.0981C19.3424 14.0981 20.0359 14.3854 20.5473 14.8968C21.0586 15.4081 21.3459 16.1017 21.3459 16.8248V20.6435" stroke="#333333" stroke-width="1.5" stroke-linecap="round" stroke-linejoin="round"/>
<path d="M11.5298 10.1436C11.4758 10.1438 11.4231 10.1601 11.3783 10.1903C11.3335 10.2205 11.2987 10.2632 11.2782 10.3132C11.2578 10.3632 11.2525 10.4181 11.2632 10.471C11.2739 10.524 11.3001 10.5725 11.3383 10.6106C11.3766 10.6487 11.4253 10.6746 11.4783 10.6851C11.5313 10.6955 11.5862 10.69 11.6361 10.6693C11.6859 10.6486 11.7285 10.6135 11.7585 10.5686C11.7885 10.5237 11.8045 10.4709 11.8045 10.4169C11.8041 10.3443 11.775 10.2748 11.7236 10.2235C11.6721 10.1723 11.6024 10.1436 11.5298 10.1436" stroke="#333333" stroke-width="1.5" stroke-linecap="round" stroke-linejoin="round"/>
<path d="M25.429 6.5715C30.6356 11.7782 30.6356 20.2208 25.429 25.4275C20.2223 30.6342 11.7796 30.6342 6.57297 25.4275C1.3663 20.2208 1.3663 11.7782 6.57297 6.5715C11.7796 1.36484 20.2223 1.36484 25.429 6.5715" stroke="#333333" stroke-width="1.5" stroke-linecap="round" stroke-linejoin="round"/>
</svg>
