<svg width="32" height="32" viewBox="0 0 32 32" fill="none" xmlns="http://www.w3.org/2000/svg">
<path d="M15.9993 29.3329C23.3631 29.3329 29.3327 23.3634 29.3327 15.9996C29.3327 8.6358 23.3631 2.66626 15.9993 2.66626C8.63555 2.66626 2.66602 8.6358 2.66602 15.9996C2.66602 23.3634 8.63555 29.3329 15.9993 29.3329Z" stroke="#333333" stroke-width="1.5" stroke-miterlimit="10" stroke-linecap="round" stroke-linejoin="round"/>
<path d="M23.6667 11.4981C23.484 10.6954 22.9413 10.0608 22.252 9.84343C21.004 9.4541 16 9.4541 16 9.4541C16 9.4541 10.9987 9.4541 9.74933 9.84343C9.06133 10.0581 8.51867 10.6914 8.33333 11.4981C8 12.9554 8 15.9994 8 15.9994C8 15.9994 8 19.0434 8.33333 20.5008C8.516 21.3034 9.05867 21.9381 9.748 22.1554C10.9987 22.5448 16 22.5448 16 22.5448C16 22.5448 21.004 22.5448 22.2507 22.1554C22.9373 21.9408 23.48 21.3074 23.6653 20.5008C24 19.0434 24 15.9994 24 15.9994C24 15.9994 24 12.9554 23.6667 11.4981Z" stroke="#333333" stroke-width="1.5" stroke-linecap="round" stroke-linejoin="round"/>
<path d="M14.1035 19.0301L19.3528 15.9994L14.1048 12.9688V19.0301H14.1035Z" stroke="#333333" stroke-width="1.5" stroke-linecap="round" stroke-linejoin="round"/>
</svg>
